<?xml version="1.0" standalone="no"?>
<!DOCTYPE svg PUBLIC "-//W3C//DTD SVG 20010904//EN"
 "http://www.w3.org/TR/2001/REC-SVG-20010904/DTD/svg10.dtd">
<svg version="1.0" xmlns="http://www.w3.org/2000/svg"
 width="2340.000000pt" height="2340.000000pt" viewBox="0 0 2340.000000 2340.000000"
 preserveAspectRatio="xMidYMid meet">
<metadata>
Created by potrace 1.11, written by Peter Selinger 2001-2013
</metadata>
<g transform="translate(0.000000,2340.000000) scale(0.100000,-0.100000)"
fill="#000000" stroke="none">
<path d="M6167 16484 c-1 -1 -29 -5 -62 -8 -82 -9 -145 -17 -175 -21 -14 -2
-45 -7 -70 -10 -25 -4 -83 -15 -130 -25 -47 -10 -98 -21 -115 -24 -56 -10
-250 -67 -365 -108 -338 -118 -656 -285 -950 -498 -58 -42 -116 -85 -129 -95
-345 -284 -617 -579 -838 -908 -104 -156 -96 -143 -176 -282 -90 -156 -267
-528 -267 -560 0 -4 -6 -21 -14 -38 -83 -183 -198 -624 -242 -926 -4 -25 -8
-55 -10 -66 -2 -11 -7 -47 -10 -80 -3 -33 -7 -73 -9 -90 -5 -42 -16 -233 -19
-343 l-3 -93 3855 3 3854 3 -6 160 c-7 197 -13 278 -27 375 -5 41 -12 89 -14
105 -2 17 -8 59 -15 95 -6 36 -13 76 -15 90 -7 45 -24 124 -40 195 -9 39 -18
77 -20 85 -2 8 -13 49 -25 90 -12 41 -26 91 -30 110 -13 50 -90 267 -138 385
-57 143 -157 350 -236 490 -60 106 -229 372 -245 385 -3 3 -26 32 -50 65 -152
206 -426 498 -621 662 -247 207 -489 366 -799 522 -182 93 -596 240 -744 265
-15 3 -35 7 -45 10 -42 13 -275 53 -352 61 -36 4 -99 10 -140 15 -64 7 -556
10 -563 4z m346 -1385 c48 -13 112 -70 139 -123 29 -58 27 -135 -7 -221 -41
-105 -170 -353 -199 -383 -9 -9 -25 11 -74 95 -105 185 -175 349 -173 408 4
95 42 158 124 205 57 33 120 39 190 19z m-1199 -637 c22 -15 50 -48 63 -73 23
-45 56 -183 68 -283 3 -28 8 -62 10 -76 2 -14 7 -56 11 -95 3 -38 8 -73 11
-77 10 -18 -33 -5 -132 38 -231 101 -343 173 -377 243 -86 177 71 394 262 359
25 -4 63 -20 84 -36z m2460 24 c88 -37 156 -141 156 -239 0 -85 -37 -147 -118
-200 -118 -77 -384 -203 -403 -191 -5 3 -8 22 -5 42 3 20 8 64 11 97 3 33 8
74 10 90 3 17 7 46 9 65 9 69 36 182 57 230 45 105 172 152 283 106z m-3208
-1173 c61 -21 147 -65 279 -144 167 -101 163 -83 38 -162 -158 -99 -319 -177
-376 -181 -84 -6 -160 41 -203 126 -52 103 -37 220 39 303 65 71 133 89 223
58z m3899 -4 c117 -60 169 -214 114 -338 -49 -111 -149 -164 -252 -134 -63 18
-218 98 -344 178 -72 45 -90 61 -82 71 6 7 70 49 142 92 255 152 335 177 422
131z"/>
<path d="M723 14432 l-31 -3 1 -2732 2 -2732 275 0 275 0 2 745 c1 870 2 882
50 1034 102 324 382 542 671 522 164 -11 272 -57 373 -156 47 -47 76 -86 102
-140 68 -141 70 -163 72 -750 3 -583 5 -634 41 -756 67 -231 215 -414 408
-503 174 -80 420 -85 661 -15 66 20 215 94 216 108 5 62 2 489 -3 492 -4 3
-28 -11 -53 -30 -148 -113 -374 -142 -523 -67 -56 29 -88 57 -128 116 -57 84
-60 121 -61 699 -1 285 -4 540 -8 565 -3 25 -9 62 -12 81 -9 63 -53 202 -87
275 -113 245 -303 419 -557 509 -94 34 -128 41 -246 55 -70 8 -209 7 -263 -3
-240 -40 -457 -176 -606 -378 -25 -35 -47 -64 -47 -65 -1 -1 -1 703 0 1563 2
1466 1 1564 -15 1565 -76 2 -484 3 -509 1z"/>
<path d="M11895 14432 l-30 -3 1 -2392 c2 -2189 3 -2400 18 -2481 65 -341 287
-584 590 -646 175 -36 427 -4 604 76 128 58 117 30 117 321 0 165 -3 249 -10
245 -5 -3 -30 -22 -55 -41 -85 -65 -199 -101 -320 -103 -123 -1 -215 33 -283
106 -46 48 -65 82 -86 156 -15 50 -17 270 -16 2408 0 1293 -2 2352 -5 2353
-20 2 -501 3 -525 1z"/>
<path d="M16515 14432 l-30 -3 1 -2722 c1 -1497 2 -2727 3 -2732 1 -7 98 -10
278 -10 l276 0 3 805 c1 443 5 821 8 840 11 60 57 203 83 255 129 256 372 413
620 401 257 -13 431 -139 511 -371 42 -122 41 -108 42 -727 1 -614 7 -669 96
-851 91 -187 244 -325 429 -385 202 -66 500 -38 707 66 l93 47 1 253 c1 138
-2 252 -6 252 -4 0 -27 -16 -51 -35 -24 -19 -48 -35 -53 -35 -5 0 -17 -6 -25
-13 -54 -44 -253 -74 -351 -52 -140 31 -239 129 -270 270 -6 27 -11 251 -12
559 -1 459 -5 581 -21 666 -47 243 -160 453 -321 595 -82 73 -125 101 -231
151 -139 66 -267 94 -449 98 -289 8 -580 -140 -753 -381 -25 -35 -46 -63 -47
-63 -2 0 -2 698 -2 1551 1 853 -2 1556 -5 1561 -6 10 -444 18 -524 10z"/>
<path d="M14209 13171 c0 -25 -1 -370 -2 -766 l-2 -720 -430 0 -430 0 0 -265
0 -265 355 -2 c195 -1 389 -2 431 -2 l76 -1 1 -723 c1 -661 3 -760 17 -837 3
-14 7 -36 10 -49 42 -221 190 -436 371 -537 262 -147 672 -143 924 9 l55 33 2
257 c1 197 -1 256 -10 250 -7 -3 -26 -17 -42 -29 -17 -13 -63 -39 -103 -59
-249 -123 -508 -71 -606 122 -61 121 -59 93 -61 861 l-2 702 76 0 c42 1 230 1
419 1 259 0 342 3 343 12 1 15 1 510 0 517 -1 3 -184 5 -408 5 -225 -1 -413 1
-419 3 -8 2 -11 217 -12 745 0 408 -1 751 -1 763 -1 21 -4 21 -276 21 l-275 1
-1 -47z"/>
<path d="M5578 11755 c-2 -1 -34 -5 -73 -9 -322 -30 -663 -212 -886 -472 -75
-87 -82 -96 -139 -189 -72 -115 -126 -235 -161 -357 -27 -93 -32 -117 -49
-238 -12 -83 -4 -325 14 -410 24 -119 25 -121 46 -190 28 -88 29 -90 90 -213
131 -262 355 -482 629 -617 272 -134 566 -184 915 -156 43 3 88 8 100 11 11 2
41 7 66 10 141 16 467 123 471 153 2 18 4 552 2 552 -2 0 -25 -16 -51 -35
-140 -100 -378 -181 -595 -202 -129 -13 -306 -7 -397 12 -91 20 -210 66 -287
111 l-46 27 809 802 809 802 -40 49 c-145 178 -347 338 -540 428 -77 36 -247
92 -305 101 -24 4 -47 8 -50 10 -15 9 -323 28 -332 20z m182 -504 c94 -17 165
-39 225 -68 64 -32 145 -89 143 -100 -2 -9 -765 -787 -1127 -1150 l-84 -84
-24 36 c-31 46 -78 165 -100 251 -20 84 -23 313 -4 394 48 206 125 354 251
481 74 74 158 134 243 173 56 25 173 61 227 68 58 9 199 8 250 -1z"/>
<path d="M8745 11753 c-154 -15 -344 -67 -475 -131 -206 -100 -411 -282 -536
-477 -66 -103 -161 -304 -170 -362 -1 -6 -7 -27 -13 -45 -6 -18 -12 -44 -15
-58 -3 -14 -10 -49 -15 -79 -25 -124 -31 -278 -18 -426 40 -442 287 -855 645
-1079 86 -54 248 -127 312 -141 3 -1 23 -7 46 -13 138 -40 321 -55 489 -39
329 29 647 211 838 479 l54 76 32 -84 c82 -215 252 -380 466 -451 73 -25 94
-27 235 -27 96 -1 176 4 210 12 103 25 205 62 275 100 l70 38 1 257 2 256 -52
-38 c-109 -82 -222 -122 -346 -121 -79 0 -107 6 -179 43 -84 42 -139 108 -170
204 l-23 71 -1 983 -2 984 -275 0 -275 0 -5 -219 -5 -220 -29 45 c-16 24 -68
82 -116 129 -188 185 -403 289 -673 325 -52 7 -234 12 -282 8z m370 -497 c70
-11 177 -48 255 -88 177 -92 311 -228 408 -415 69 -132 72 -150 72 -428 0
-283 -2 -294 -80 -444 -181 -348 -546 -538 -938 -487 -323 42 -637 317 -736
646 -41 133 -53 315 -31 440 47 264 194 490 420 646 82 57 248 119 350 131 22
3 41 6 43 8 5 4 195 -3 237 -9z"/>
<path d="M20329 11665 c-4 -131 0 -1797 6 -1840 24 -209 109 -426 219 -560 76
-93 101 -117 179 -176 120 -90 258 -151 422 -184 69 -15 275 -17 346 -4 41 7
76 13 79 14 3 0 41 13 85 29 178 65 337 190 445 350 26 37 40 52 40 40 4 -150
0 -976 -5 -1011 -39 -280 -248 -545 -498 -633 -31 -11 -64 -20 -74 -20 -49 -1
-47 -11 52 -246 53 -126 101 -233 106 -238 5 -6 48 0 112 16 442 109 781 529
856 1059 5 36 8 793 7 1744 l-1 1680 -275 0 -275 0 -2 -715 c-2 -810 -4 -894
-33 -1004 -76 -294 -285 -519 -530 -570 -64 -13 -181 -14 -250 -1 -219 38
-385 203 -436 435 -4 19 -10 42 -12 50 -2 8 -6 416 -7 905 -2 490 -4 892 -4
895 -1 3 -125 5 -276 5 -269 0 -275 0 -276 -20z"/>
</g>
</svg>
